<svg width="512" height="512" viewBox="0 0 48 48" fill="none" xmlns="http://www.w3.org/2000/svg">
  <!-- Outer wave ring -->
  <path d="M24 4C34.5 4 44 12 44 24C44 34.5 35 44 24 44C12 44 4 35.5 4 24C4 13 13.5 4 24 4"
        stroke="#0D9488" stroke-width="1.2" stroke-opacity="0.35" fill="none" stroke-linecap="round"/>
  <!-- Second wave ring -->
  <path d="M24 8.5C31 7.5 38.5 14 39.5 24C40 32 34 39.5 24 39.5C14.5 40 8 33 8.5 24C8.5 15 15 8 24 8.5"
        stroke="#0D9488" stroke-width="1.3" stroke-opacity="0.45" fill="none" stroke-linecap="round"/>
  <!-- Third wave ring -->
  <path d="M24 12C30 11.5 35 16 35.5 24C36 30.5 31.5 35.5 24 36C17 36 12.5 31 12 24C12 17.5 17 12 24 12"
        stroke="#EC4899" stroke-width="1.5" stroke-opacity="0.55" fill="none" stroke-linecap="round"/>
  <!-- Fourth wave ring -->
  <path d="M24 16C28.5 15.5 32 18.5 32 24C32.5 28.5 29 32 24 32C19.5 32.5 16 29.5 16 24C15.5 19 19 16 24 16"
        stroke="#0D9488" stroke-width="1.6" stroke-opacity="0.7" fill="none" stroke-linecap="round"/>
  <!-- Inner wave ring -->
  <path d="M24 20C26.5 19.5 28.5 21 28.5 24C29 26 27 28.5 24 28C21.5 28.5 19.5 27 19.5 24C19 22 21 19.5 24 20"
        stroke="#EC4899" stroke-width="1.8" stroke-opacity="0.85" fill="none" stroke-linecap="round"/>
  <!-- Central core -->
  <circle cx="24" cy="24" r="2" fill="#0D9488" fill-opacity="0.9"/>
</svg>
